<svg width="90" height="68" viewBox="0 0 90 68" fill="none" xmlns="http://www.w3.org/2000/svg">
<path d="M33.1136 55.9631V18.0046C27.2372 21.6193 20.7831 24.1966 14.0332 25.6238V59.9749C20.2517 58.0353 26.6406 56.6919 33.1136 55.9631Z" fill="#B89B72"/>
<path d="M14.0332 64.8926V67.2139H33.1136V61.9889C26.6933 62.5084 20.3174 63.4787 14.0332 64.8926Z" fill="#B89B72"/>
<path d="M44.8254 61.5116C41.5011 61.5116 38.3143 61.6248 35.2893 61.827V67.2139H54.3696V61.827C51.3365 61.6248 48.1497 61.5116 44.8254 61.5116Z" fill="#282D3C"/>
<path d="M44.8254 55.2998C48.1497 55.2998 51.2961 55.4616 54.3696 55.7366V7.61919C47.6179 6.19819 41.1627 3.62049 35.2893 0V55.7366C38.3224 55.4616 41.5011 55.2998 44.8254 55.2998Z" fill="#282D3C"/>
<path d="M75.6258 59.9749V25.6238C68.8753 24.1988 62.4207 21.6214 56.5454 18.0046V55.9631C63.0184 56.6919 69.4073 58.0353 75.6258 59.9749Z" fill="#B89B72"/>
<path d="M56.5454 61.9889V67.2139H75.6258V64.8926C69.3413 63.4799 62.9656 62.5096 56.5454 61.9889Z" fill="#B89B72"/>
<path d="M44.8254 56.8204C17.9965 56.8204 0 67.4647 0 67.4647C0 67.4647 17.7458 59.9911 44.8254 59.9911C71.9051 59.9911 89.6509 67.4647 89.6509 67.4647C89.6509 67.4647 71.6544 56.8204 44.8254 56.8204Z" fill="#282D3C"/>
</svg>
